<svg width="356.25" height="172.549" viewBox="0 0 356.25 172.549" xmlns="http://www.w3.org/2000/svg"><g id="svgGroup" stroke-linecap="round" fill-rule="evenodd" font-size="9pt" stroke="#000" stroke-width="0.25mm" fill="#000" style="stroke:#000;stroke-width:0.25mm;fill:#000"><path d="M 240.527 129.385 L 240.82 131.729 A 6.951 6.951 0 0 0 240.472 131.645 Q 239.313 131.399 239.014 131.826 A 1.683 1.683 0 0 0 238.786 132.308 Q 238.672 132.686 238.672 133.194 A 34.299 34.299 0 0 0 238.718 134.942 A 37.336 37.336 0 0 0 238.721 135 Q 238.741 135.387 238.634 135.697 A 1.451 1.451 0 0 1 238.086 136.416 A 2.583 2.583 0 0 1 237.82 136.721 Q 237.654 136.882 237.475 136.988 A 1.61 1.61 0 0 1 237.451 137.002 Q 237.109 137.198 236.816 137.491 Q 233.691 139.834 232.52 143.448 A 7.712 7.712 0 0 0 232.227 144.619 A 10.112 10.112 0 0 1 232.104 145.23 A 13.241 13.241 0 0 1 231.934 145.889 A 9.508 9.508 0 0 1 231.299 147.281 Q 230.957 147.9 230.503 148.538 A 15.567 15.567 0 0 1 230.371 148.721 A 74.104 74.104 0 0 1 228.726 150.877 A 86.368 86.368 0 0 1 228.027 151.748 Q 226.758 153.311 225.586 155.02 A 17.79 17.79 0 0 0 224.154 157.502 A 15.527 15.527 0 0 0 223.73 158.487 Q 222.296 158.307 221.397 158.745 A 2.471 2.471 0 0 0 221.24 158.828 Q 220.313 159.366 219.727 160.293 A 10.376 10.376 0 0 0 218.75 162.295 Q 218.359 163.369 217.725 164.2 A 4.023 4.023 0 0 1 216.191 165.413 A 4.771 4.771 0 0 1 216.064 165.469 Q 215.12 165.874 213.636 165.491 A 7.937 7.937 0 0 1 213.379 165.42 L 208.984 169.424 Q 208.239 168.989 207.513 168.989 A 2.491 2.491 0 0 0 206.689 169.131 A 11.307 11.307 0 0 0 205.014 169.877 A 13.227 13.227 0 0 0 204.443 170.205 Q 203.32 170.889 202.197 171.28 A 2.528 2.528 0 0 1 201.361 171.422 Q 200.618 171.422 199.816 170.993 A 4.717 4.717 0 0 1 199.805 170.987 A 5.024 5.024 0 0 1 199.485 171.322 Q 199.155 171.636 198.877 171.752 A 0.856 0.856 0 0 1 198.633 171.817 A 0.522 0.522 0 0 1 198.581 171.819 Q 198.109 171.819 197.461 170.987 L 195.996 172.549 Q 194.861 171.603 193.222 170.795 A 19.514 19.514 0 0 0 193.115 170.743 Q 191.406 169.912 189.941 168.887 A 9.632 9.632 0 0 1 188.411 167.568 A 8.063 8.063 0 0 1 187.598 166.543 A 3.153 3.153 0 0 1 187.085 165.037 Q 187.013 164.196 187.305 163.174 A 4.56 4.56 0 0 0 187.087 162.643 Q 186.96 162.378 186.789 162.095 A 8.187 8.187 0 0 0 186.67 161.905 Q 186.23 161.221 185.938 160.489 A 6.187 6.187 0 0 1 185.575 159.213 A 5.681 5.681 0 0 1 185.547 159.024 Q 185.456 158.339 185.876 157.782 A 2.07 2.07 0 0 1 185.937 157.705 Q 185.25 156.406 185.25 155.077 A 5.232 5.232 0 0 1 185.303 154.336 Q 185.547 152.627 186.035 150.967 Q 186.523 149.307 186.816 147.647 Q 187.051 146.317 186.534 144.988 A 6.271 6.271 0 0 0 186.23 144.326 Q 187.402 143.448 187.939 142.08 A 36.152 36.152 0 0 0 188.916 139.248 A 57.817 57.817 0 0 1 189.844 136.416 A 4.749 4.749 0 0 1 191.504 134.17 L 191.406 132.608 A 89.522 89.522 0 0 1 201.123 123.672 Q 206.25 119.619 212.695 117.666 A 8.739 8.739 0 0 1 214.16 115.725 A 7.249 7.249 0 0 1 216.016 114.395 Q 218.066 113.369 220.166 112.539 A 18.965 18.965 0 0 0 223.968 110.527 A 17.777 17.777 0 0 0 224.023 110.489 A 6.12 6.12 0 0 0 225.678 108.738 Q 226.151 108.001 226.504 107.071 A 11.481 11.481 0 0 0 226.66 106.631 A 4.329 4.329 0 0 0 226.821 106.952 Q 227.17 107.576 227.52 107.576 A 0.406 0.406 0 0 0 227.637 107.559 A 3.518 3.518 0 0 0 228.137 107.364 Q 228.394 107.242 228.662 107.071 A 5.032 5.032 0 0 1 229.123 106.809 Q 229.377 106.683 229.619 106.604 A 3.069 3.069 0 0 1 229.688 106.582 Q 230.17 106.438 230.653 107.39 A 4.681 4.681 0 0 1 230.664 107.412 A 10.581 10.581 0 0 1 232.123 104.523 A 9.241 9.241 0 0 1 233.838 102.725 A 26.258 26.258 0 0 1 238.387 99.815 A 29.138 29.138 0 0 1 238.721 99.649 Q 241.406 98.33 244.141 97.11 A 21.283 21.283 0 0 0 247.743 95.077 A 18.764 18.764 0 0 0 248.975 94.131 A 11.153 11.153 0 0 0 252.148 89.785 A 8.715 8.715 0 0 0 252.686 87.859 Q 253.024 85.808 252.637 83.096 A 3.056 3.056 0 0 0 253.383 82.407 A 2.686 2.686 0 0 0 253.809 81.582 A 12.443 12.443 0 0 0 254.248 79.678 Q 254.395 78.701 254.688 77.92 A 1.626 1.626 0 0 1 255.461 77.05 A 2.55 2.55 0 0 1 255.957 76.846 A 2.885 2.885 0 0 0 255.585 76.37 Q 255.085 75.861 254.458 75.861 A 1.615 1.615 0 0 0 254.297 75.869 Q 253.32 75.967 252.295 76.455 A 36.658 36.658 0 0 0 251.07 77.066 A 30.51 30.51 0 0 0 250.391 77.432 A 3.074 3.074 0 0 1 250.042 77.599 Q 249.411 77.852 248.953 77.641 A 1.03 1.03 0 0 1 248.926 77.627 Q 248.633 78.994 247.705 79.58 A 12.817 12.817 0 0 1 245.77 80.578 A 14.042 14.042 0 0 1 245.703 80.606 A 363.595 363.595 0 0 0 244.037 81.292 A 415.129 415.129 0 0 0 243.457 81.534 A 3.953 3.953 0 0 0 241.602 83.096 Q 240.729 82.708 240.001 83.427 A 2.369 2.369 0 0 0 239.99 83.438 A 33.913 33.913 0 0 0 238.708 84.794 A 37.473 37.473 0 0 0 238.525 85 A 5.242 5.242 0 0 1 237.706 85.758 A 4.234 4.234 0 0 1 236.914 86.221 A 1.115 1.115 0 0 1 236.456 86.319 Q 235.742 86.319 234.863 85.44 A 4.199 4.199 0 0 1 234.361 86.406 A 2.947 2.947 0 0 1 232.959 87.491 A 7.904 7.904 0 0 1 230.844 87.948 A 9.451 9.451 0 0 1 230.078 87.979 A 26.361 26.361 0 0 1 226.904 87.784 Q 225.656 87.632 224.612 87.774 A 6.53 6.53 0 0 0 224.023 87.881 L 222.363 86.221 Q 222.168 86.709 221.729 87.002 A 1.083 1.083 0 0 1 221.46 87.134 Q 221.194 87.22 220.91 87.138 A 1.185 1.185 0 0 1 220.801 87.1 A 50.803 50.803 0 0 1 219.75 84.702 A 59.533 59.533 0 0 1 219.287 83.535 A 16.532 16.532 0 0 1 218.361 80.084 A 15.294 15.294 0 0 1 218.311 79.727 A 8.735 8.735 0 0 1 218.239 78.615 A 8.375 8.375 0 0 1 218.652 76.016 Q 219.238 74.209 220.996 72.842 A 22.376 22.376 0 0 1 225.063 67.456 A 20.039 20.039 0 0 1 228.125 65.03 Q 228.592 65.404 229.149 65.285 A 1.433 1.433 0 0 0 229.199 65.274 A 4.723 4.723 0 0 0 229.874 65.047 A 6.18 6.18 0 0 0 230.42 64.785 A 9.686 9.686 0 0 0 231.641 64.004 A 4.079 4.079 0 0 1 232.032 63.742 Q 232.236 63.624 232.426 63.551 A 1.823 1.823 0 0 1 232.715 63.467 A 4.98 4.98 0 0 1 233.361 62.052 A 6.304 6.304 0 0 1 233.838 61.416 A 11.864 11.864 0 0 1 235.693 59.659 A 18.826 18.826 0 0 1 237.842 58.243 A 53.319 53.319 0 0 1 238.928 57.644 A 41.527 41.527 0 0 1 239.941 57.119 Q 241.797 56.241 243.408 54.922 A 80.087 80.087 0 0 1 246.68 52.383 Q 248.34 51.162 250.098 50.284 Q 251.855 49.405 254.102 49.405 L 255.859 50.967 A 11.408 11.408 0 0 0 252.979 53.36 A 193.924 193.924 0 0 1 250.488 56.192 Q 249.219 57.608 247.754 58.78 A 7.366 7.366 0 0 1 245.477 60.002 A 9.548 9.548 0 0 1 244.141 60.342 Q 242.383 63.76 239.404 66.153 A 78.649 78.649 0 0 1 233.301 70.596 A 3.963 3.963 0 0 1 233.177 71.612 A 2.885 2.885 0 0 1 232.422 72.94 Q 231.543 73.819 230.371 74.502 A 26.887 26.887 0 0 1 228.027 75.723 A 6.328 6.328 0 0 0 226.936 76.355 A 5.013 5.013 0 0 0 226.123 77.09 A 2.908 2.908 0 0 0 225.405 78.805 A 3.813 3.813 0 0 0 225.391 79.141 A 3.179 3.179 0 0 0 225.515 79.975 Q 225.787 80.972 226.66 82.315 A 7.113 7.113 0 0 1 227.943 81.83 Q 228.656 81.632 229.492 81.534 Q 231.152 81.338 232.715 80.996 A 9.842 9.842 0 0 0 234.513 80.426 A 8.299 8.299 0 0 0 235.498 79.922 A 3.694 3.694 0 0 0 236.938 78.314 A 5.035 5.035 0 0 0 237.207 77.627 A 6.939 6.939 0 0 1 238.669 76.652 A 5.725 5.725 0 0 1 240.137 76.162 A 10.343 10.343 0 0 1 242.047 75.987 A 11.226 11.226 0 0 1 243.359 76.065 A 103.979 103.979 0 0 1 248.628 70.706 A 92.944 92.944 0 0 1 249.854 69.571 Q 253.125 66.592 256.055 63.467 Q 258.984 60.342 261.475 56.778 A 36.889 36.889 0 0 0 264.307 51.95 A 46.233 46.233 0 0 0 265.82 48.526 A 4.951 4.951 0 0 1 266.653 48.349 Q 266.905 48.319 267.15 48.319 A 3.783 3.783 0 0 1 269.336 49.014 Q 270.898 50.088 271.582 51.748 A 9.645 9.645 0 0 1 271.053 53.687 A 8.884 8.884 0 0 1 270.947 53.946 A 43.487 43.487 0 0 0 270.436 55.189 A 36.249 36.249 0 0 0 270.166 55.899 Q 269.824 56.826 269.678 57.901 A 3.782 3.782 0 0 0 269.644 58.412 Q 269.644 59.29 270.02 60.342 Q 269.345 60.174 268.925 60.66 A 1.512 1.512 0 0 0 268.799 60.83 Q 268.359 61.514 267.871 62.002 Q 268.148 63.203 267.814 64.185 A 3.316 3.316 0 0 1 267.773 64.297 A 10.946 10.946 0 0 1 266.797 66.25 A 12.817 12.817 0 0 0 265.799 68.185 A 14.042 14.042 0 0 0 265.771 68.252 Q 265.343 69.301 265.518 70.535 A 5.476 5.476 0 0 0 265.527 70.596 A 21.052 21.052 0 0 0 263.525 75.918 A 36.514 36.514 0 0 0 262.695 81.534 L 264.453 83.096 A 7.58 7.58 0 0 1 266.082 81.349 A 6.682 6.682 0 0 1 267.627 80.459 Q 269.531 79.678 271.484 79.141 Q 273.438 78.604 275.293 77.871 A 6.888 6.888 0 0 0 277.661 76.286 A 8.962 8.962 0 0 0 278.516 75.284 A 8.566 8.566 0 0 1 279.037 73.598 Q 279.487 72.565 280.192 71.856 A 4.789 4.789 0 0 1 280.957 71.231 Q 282.813 70.01 284.863 69.131 A 34.634 34.634 0 0 0 288.818 67.129 A 5.579 5.579 0 0 0 290.906 64.916 A 7.981 7.981 0 0 0 291.504 63.467 L 293.945 63.467 Q 293.791 63.854 294.003 64.179 A 1.048 1.048 0 0 0 294.141 64.346 L 294.824 65.03 Q 293.75 66.397 293.164 68.057 Q 292.578 69.717 291.748 71.182 A 8.6 8.6 0 0 1 290.283 73.105 A 7.851 7.851 0 0 1 289.697 73.623 A 3.832 3.832 0 0 1 288.278 74.323 Q 287.424 74.552 286.328 74.502 A 4.042 4.042 0 0 0 284.033 76.602 Q 283.301 78.116 282.617 79.629 A 7.888 7.888 0 0 1 281.836 80.996 A 6.19 6.19 0 0 1 280.859 82.071 A 2.166 2.166 0 0 1 279.79 82.562 Q 278.898 82.716 277.637 82.315 A 18.763 18.763 0 0 0 272.705 85.391 A 59.908 59.908 0 0 0 268.555 89.346 Q 267.871 90.03 266.992 91.055 A 10.925 10.925 0 0 1 266.373 91.723 Q 265.833 92.256 265.332 92.569 A 1.768 1.768 0 0 1 264.944 92.735 Q 264.5 92.863 264.056 92.703 A 1.7 1.7 0 0 1 263.965 92.666 A 11.943 11.943 0 0 1 262.994 92.199 A 10.412 10.412 0 0 1 262.695 92.032 A 2.821 2.821 0 0 0 262.227 91.81 Q 261.933 91.705 261.652 91.692 A 1.707 1.707 0 0 0 261.572 91.69 A 0.692 0.692 0 0 0 261.123 91.864 Q 260.897 92.051 260.705 92.44 A 3.449 3.449 0 0 0 260.645 92.569 A 6.512 6.512 0 0 1 260.835 92.983 Q 261.164 93.776 261.05 94.227 A 0.709 0.709 0 0 1 260.937 94.473 A 1.903 1.903 0 0 1 260.464 94.923 Q 260.135 95.147 259.668 95.303 Q 258.789 95.596 257.813 95.791 A 4.514 4.514 0 0 0 257.109 95.989 Q 256.733 96.13 256.438 96.333 A 2.542 2.542 0 0 0 256.25 96.475 Q 255.078 97.549 254.59 99.112 A 56.059 56.059 0 0 0 253.711 102.237 A 13.684 13.684 0 0 1 252.588 105.215 A 4.665 4.665 0 0 1 250.979 106.975 A 6.208 6.208 0 0 1 250.195 107.412 Q 251.044 108.007 251.044 108.601 A 0.849 0.849 0 0 1 251.025 108.78 A 4.872 4.872 0 0 1 250.783 109.564 A 6.332 6.332 0 0 1 250.488 110.196 A 6.178 6.178 0 0 0 250.144 110.955 A 4.766 4.766 0 0 0 249.951 111.612 A 0.93 0.93 0 0 0 249.93 111.807 Q 249.93 112.393 250.684 112.979 A 25.53 25.53 0 0 0 248.096 116.983 A 180.728 180.728 0 0 0 245.898 121.328 A 67.737 67.737 0 0 1 243.604 125.625 A 15.428 15.428 0 0 1 240.527 129.385 Z M 34.375 80.069 L 33.496 79.287 L 33.301 79.483 Q 32.422 80.166 31.885 80.655 Q 31.348 81.143 30.811 81.68 Q 30.273 82.217 29.785 82.803 A 39.675 39.675 0 0 0 29.391 83.284 Q 29.041 83.719 28.613 84.268 A 60.763 60.763 0 0 1 27.053 86.137 A 72.357 72.357 0 0 1 26.025 87.295 A 7.772 7.772 0 0 1 24.11 88.852 A 6.996 6.996 0 0 1 22.754 89.444 Q 22.518 89.679 22.346 89.884 A 4.682 4.682 0 0 0 22.266 89.981 A 0.739 0.739 0 0 1 22.063 90.152 Q 21.964 90.211 21.836 90.255 A 1.97 1.97 0 0 1 21.582 90.323 Q 20.996 90.518 20.215 90.225 A 4.126 4.126 0 0 1 19.547 89.907 A 3.074 3.074 0 0 1 18.945 89.444 A 3.653 3.653 0 0 0 17.785 89.623 A 3.257 3.257 0 0 0 17.041 89.981 A 7.203 7.203 0 0 0 15.946 90.858 A 8.61 8.61 0 0 0 15.479 91.348 A 22.446 22.446 0 0 0 14.111 93.057 A 7.136 7.136 0 0 1 13.215 94.084 A 6.137 6.137 0 0 1 12.695 94.522 A 5.797 5.797 0 0 0 11.78 94.258 Q 11.333 94.17 10.908 94.17 A 3.83 3.83 0 0 0 9.814 94.326 A 107.361 107.361 0 0 1 7.227 95.059 A 8.514 8.514 0 0 1 5.005 95.358 A 8.257 8.257 0 0 1 4.688 95.352 A 2.603 2.603 0 0 1 3.538 95.018 Q 3.147 94.805 2.756 94.459 A 6.637 6.637 0 0 1 2.148 93.838 Q 1.563 90.909 1.172 88.467 A 135.964 135.964 0 0 1 0.806 86.465 A 116.053 116.053 0 0 1 0.488 84.561 Q 0.214 82.825 0.197 82.371 A 1.465 1.465 0 0 1 0.195 82.315 A 1.492 1.492 0 0 0 0.616 81.459 Q 0.639 81.309 0.639 81.145 A 2.522 2.522 0 0 0 0.635 80.996 A 7.228 7.228 0 0 0 0.571 80.362 Q 0.507 79.928 0.391 79.58 Q 0.259 79.515 0.216 79.449 A 0.116 0.116 0 0 1 0.195 79.385 A 0.118 0.118 0 0 0 0.172 79.318 Q 0.142 79.274 0.073 79.231 A 0.84 0.84 0 0 0 0 79.19 A 2.423 2.423 0 0 0 0.732 78.213 A 2.423 2.423 0 0 1 1.465 77.237 A 72.695 72.695 0 0 0 1.169 76.461 Q 0.989 75.998 0.781 75.479 A 5.373 5.373 0 0 1 0.415 74.014 A 4.904 4.904 0 0 1 0.391 73.526 A 5.576 5.576 0 0 1 0.508 73.237 Q 0.733 72.725 0.928 72.647 Q 1.172 72.549 2.051 72.354 A 7.851 7.851 0 0 0 1.851 71.565 A 7.059 7.059 0 0 0 1.807 71.426 Q 1.664 70.998 1.753 70.524 A 2.139 2.139 0 0 1 1.758 70.498 A 3.666 3.666 0 0 1 1.868 69.583 A 2.971 2.971 0 0 1 2.197 68.789 A 36.444 36.444 0 0 1 3.125 67.325 Q 3.613 66.592 4.004 65.713 A 4.404 4.404 0 0 0 4.32 64.632 A 5.999 5.999 0 0 0 4.395 63.662 L 4.395 63.174 A 4.018 4.018 0 0 0 5.066 63.122 Q 5.981 62.967 6.348 62.344 A 4.314 4.314 0 0 0 6.86 60.962 A 5.282 5.282 0 0 0 6.934 60.44 Q 7.031 59.366 7.031 58.291 Q 7.031 57.597 7.276 57.147 A 1.427 1.427 0 0 1 7.617 56.729 Q 8.008 56.338 8.35 56.387 A 4.293 4.293 0 0 0 8.627 56.417 Q 8.782 56.429 8.959 56.433 A 8.772 8.772 0 0 0 9.18 56.436 A 17.49 17.49 0 0 0 9.448 56.115 Q 9.814 55.667 9.961 55.41 A 0.539 0.539 0 0 0 10.016 55.263 Q 10.102 54.889 9.863 54.092 A 2.587 2.587 0 0 0 10.28 54.061 Q 10.675 53.996 10.938 53.799 A 2.078 2.078 0 0 0 11.45 53.236 A 2.552 2.552 0 0 0 11.572 53.018 L 12.061 52.041 A 3.363 3.363 0 0 1 12.695 51.162 Q 12.695 49.758 13.116 48.838 A 2.837 2.837 0 0 1 13.965 47.744 A 11.542 11.542 0 0 1 16.351 46.34 A 13.191 13.191 0 0 1 16.846 46.133 A 28.546 28.546 0 0 0 19.867 44.728 A 31.252 31.252 0 0 0 20.068 44.619 A 4.535 4.535 0 0 0 21.652 43.15 Q 22.131 42.444 22.461 41.494 Q 23.161 41.925 23.743 41.925 A 1.447 1.447 0 0 0 24.609 41.641 A 16.841 16.841 0 0 0 26.27 40.274 A 4.048 4.048 0 0 1 27.493 39.473 A 3.81 3.81 0 0 1 28.027 39.297 Q 28.845 39.093 30.005 40.155 A 8.601 8.601 0 0 1 30.469 40.616 A 3.401 3.401 0 0 1 30.909 39.691 Q 31.534 38.792 32.703 38.675 A 3.451 3.451 0 0 1 32.861 38.662 A 6.63 6.63 0 0 1 33.219 38.653 A 5.556 5.556 0 0 1 36.133 39.444 L 36.133 39.541 L 36.23 39.541 A 3.89 3.89 0 0 1 37.409 39.953 A 3.224 3.224 0 0 1 38.574 41.055 A 12.767 12.767 0 0 1 39.59 43.006 A 15 15 0 0 1 39.893 43.789 Q 40.43 45.303 41.064 46.768 A 6.022 6.022 0 0 0 42.038 48.336 A 5.363 5.363 0 0 0 42.871 49.112 A 204.963 204.963 0 0 0 43.994 43.936 A 17.899 17.899 0 0 1 45.801 38.955 A 2.554 2.554 0 0 0 46.102 39.269 Q 46.834 39.904 47.631 39.364 A 2.018 2.018 0 0 0 47.656 39.346 L 47.559 39.151 A 6.643 6.643 0 0 1 47.794 37.355 A 5.808 5.808 0 0 1 48.193 36.319 Q 48.828 35.049 49.463 33.828 Q 50.098 32.608 50.244 31.289 Q 50.391 29.971 49.316 28.311 A 4.418 4.418 0 0 0 50.532 27.756 A 3.561 3.561 0 0 0 51.709 26.455 A 13.963 13.963 0 0 0 52.751 23.925 A 15.769 15.769 0 0 0 52.881 23.477 A 73.21 73.21 0 0 1 53.857 20.205 Q 54.395 18.545 55.566 17.373 A 3.558 3.558 0 0 0 55.518 16.787 A 3.558 3.558 0 0 1 55.469 16.201 Q 55.566 15.42 56.055 14.834 A 17.017 17.017 0 0 1 56.842 13.955 A 19.277 19.277 0 0 1 57.129 13.662 Q 57.715 13.076 58.154 12.344 Q 58.583 11.629 58.5 10.589 A 4.558 4.558 0 0 0 58.496 10.537 Q 59.273 9.527 59.927 7.991 A 19.259 19.259 0 0 0 60.254 7.168 Q 61.035 5.069 61.914 3.213 A 10.495 10.495 0 0 1 62.607 1.964 Q 63.014 1.34 63.472 0.874 A 5.329 5.329 0 0 1 63.965 0.43 A 1.933 1.933 0 0 1 65.198 0 Q 65.789 0 66.488 0.316 A 5.657 5.657 0 0 1 66.992 0.576 A 6.713 6.713 0 0 1 67.206 1.367 Q 67.305 1.856 67.305 2.295 A 3.637 3.637 0 0 1 67.285 2.676 A 2.355 2.355 0 0 1 67.031 3.497 Q 66.76 4.031 66.211 4.58 A 16.236 16.236 0 0 1 66.549 4.928 Q 66.853 5.25 67.046 5.499 A 4.377 4.377 0 0 1 67.09 5.557 A 34.83 34.83 0 0 1 65.967 11.563 A 2298.533 2298.533 0 0 0 64.355 17.373 L 64.746 17.764 L 65.137 18.155 A 28.19 28.19 0 0 0 63.231 21.231 A 23.741 23.741 0 0 0 62.451 22.842 A 38.308 38.308 0 0 0 61.157 26.249 A 44.946 44.946 0 0 0 60.645 27.92 A 36.966 36.966 0 0 0 60.233 29.586 A 41.195 41.195 0 0 0 60.107 30.166 Q 59.863 31.338 59.473 32.315 Q 58.984 33.291 58.301 34.414 Q 57.617 35.537 57.129 36.612 A 49.71 49.71 0 0 0 55.225 41.153 A 194.012 194.012 0 0 0 53.613 45.791 A 221.484 221.484 0 0 1 51.611 51.358 Q 50.586 54.092 49.121 56.729 L 49.121 58.291 A 3.378 3.378 0 0 1 49.024 58.859 Q 48.944 59.156 48.81 59.383 A 1.43 1.43 0 0 1 48.438 59.805 A 7.143 7.143 0 0 1 47.476 60.409 A 8.329 8.329 0 0 1 47.119 60.586 A 5.115 5.115 0 0 0 46.201 61.144 A 6.404 6.404 0 0 0 45.703 61.563 A 2.466 2.466 0 0 0 45.237 62.17 Q 44.908 62.758 44.727 63.661 A 3.231 3.231 0 0 0 44.727 63.662 L 44.727 63.76 L 44.824 63.858 Q 45.801 66.006 45.264 67.813 A 40.656 40.656 0 0 1 44.043 71.328 A 15.508 15.508 0 0 0 43.287 73.76 A 13.572 13.572 0 0 0 43.115 74.698 A 3.092 3.092 0 0 0 43.082 75.148 Q 43.082 76.595 44.434 78.116 A 7.658 7.658 0 0 0 44.424 78.498 Q 44.424 79.878 44.955 80.806 A 3.234 3.234 0 0 0 45.215 81.192 Q 46.094 82.315 47.266 83.096 A 25.624 25.624 0 0 0 49.658 84.512 A 5.296 5.296 0 0 1 50.601 85.13 A 3.894 3.894 0 0 1 51.465 86.123 A 8.072 8.072 0 0 1 52.793 85.042 A 6.958 6.958 0 0 1 53.564 84.61 A 12.749 12.749 0 0 1 55.46 83.877 A 11.551 11.551 0 0 1 55.811 83.78 Q 56.934 83.487 58.057 83.243 A 16.972 16.972 0 0 0 60.254 82.608 A 16.035 16.035 0 0 0 61.493 82.224 Q 63.052 81.665 63.77 80.948 A 14.333 14.333 0 0 0 64.101 80.605 Q 64.746 79.916 64.746 79.678 A 3.227 3.227 0 0 1 64.854 79.029 Q 64.958 78.664 65.151 78.404 A 1.468 1.468 0 0 1 65.771 77.92 A 6.935 6.935 0 0 1 66.84 77.574 A 9.395 9.395 0 0 1 67.92 77.383 A 21.359 21.359 0 0 0 70.361 76.944 A 2.601 2.601 0 0 0 72.063 75.674 A 3.406 3.406 0 0 0 72.168 75.479 Q 73.088 75.562 73.829 74.965 A 3.054 3.054 0 0 0 74.072 74.746 A 18.362 18.362 0 0 0 75.586 73.037 Q 76.27 72.159 76.953 71.573 A 1.279 1.279 0 0 1 77.198 71.405 Q 77.775 71.107 78.418 71.67 A 88.578 88.578 0 0 1 77.113 74.507 Q 75.72 77.392 74.512 79.239 Q 72.754 81.924 70.654 83.682 A 28.373 28.373 0 0 1 67.782 85.784 A 34.679 34.679 0 0 1 65.82 86.953 A 56.333 56.333 0 0 0 63.79 88.138 Q 61.71 89.407 59.082 91.201 Q 57.474 91.296 55.591 91.895 A 19.873 19.873 0 0 0 55.469 91.934 A 12.09 12.09 0 0 0 53.61 92.705 A 9.384 9.384 0 0 0 52.148 93.643 A 20.936 20.936 0 0 1 48.595 92.987 A 17.74 17.74 0 0 1 46.777 92.373 A 12.728 12.728 0 0 1 43.699 90.587 A 16.111 16.111 0 0 1 42.187 89.248 A 7.026 7.026 0 0 1 41.309 88.174 A 7.026 7.026 0 0 0 40.43 87.1 A 11.002 11.002 0 0 1 39.835 86.335 Q 39.264 85.525 39.063 84.854 Q 38.866 84.198 38.713 83.277 A 24.334 24.334 0 0 1 38.574 82.315 Q 38.184 80.069 37.402 79.092 Q 36.658 78.162 34.584 79.89 A 13.182 13.182 0 0 0 34.375 80.069 Z M 121.289 79.385 L 120.508 78.604 L 110.352 83.487 A 3.482 3.482 0 0 0 109.787 83.778 A 4.541 4.541 0 0 0 109.375 84.073 A 9.214 9.214 0 0 1 108.65 84.599 A 8.016 8.016 0 0 1 108.398 84.756 Q 106.25 85.928 103.955 86.856 A 98.178 98.178 0 0 1 99.414 88.565 L 98.145 88.955 A 7.242 7.242 0 0 1 98.346 89.523 Q 98.643 90.494 98.473 91.114 A 1.276 1.276 0 0 1 98.145 91.69 A 3.579 3.579 0 0 1 97.262 92.326 Q 96.86 92.536 96.366 92.687 A 7.066 7.066 0 0 1 95.898 92.813 A 16.949 16.949 0 0 1 94.158 93.12 A 21.482 21.482 0 0 1 92.676 93.252 A 9.521 9.521 0 0 0 91.653 93.361 Q 91.134 93.447 90.707 93.59 A 3.884 3.884 0 0 0 89.941 93.936 A 11.576 11.576 0 0 0 88.035 93.78 A 12.167 12.167 0 0 0 87.549 93.789 A 22.212 22.212 0 0 0 85.059 94.034 A 20.083 20.083 0 0 1 83.583 94.191 A 15.687 15.687 0 0 1 82.52 94.229 A 10.834 10.834 0 0 1 81.139 94.136 A 14.146 14.146 0 0 1 79.98 93.936 L 79.785 93.936 A 6.135 6.135 0 0 1 79.014 94.241 Q 77.832 94.612 76.904 94.278 A 5.543 5.543 0 0 1 75.018 93.119 A 6.627 6.627 0 0 1 74.707 92.813 A 12.124 12.124 0 0 1 73.557 91.398 A 15.188 15.188 0 0 1 72.9 90.371 A 29.251 29.251 0 0 0 71.844 88.697 A 24.655 24.655 0 0 0 71.191 87.784 A 15.042 15.042 0 0 1 70.797 87.228 Q 70.396 86.641 69.894 85.814 A 54.517 54.517 0 0 1 69.727 85.537 A 19.81 19.81 0 0 1 68.213 82.412 Q 67.578 80.752 67.432 79.043 Q 67.333 77.889 67.701 76.936 A 4.162 4.162 0 0 1 68.164 76.065 Q 69.043 74.795 69.58 73.33 A 8.423 8.423 0 0 0 69.991 71.69 Q 70.109 70.91 70.117 70.03 A 14.04 14.04 0 0 0 70.117 69.912 A 16.931 16.931 0 0 0 70.102 69.174 A 13.498 13.498 0 0 0 70.068 68.643 A 13.993 13.993 0 0 1 70.028 67.913 A 17.525 17.525 0 0 1 70.02 67.373 A 11.31 11.31 0 0 1 70.532 67.386 A 14.941 14.941 0 0 1 71.094 67.422 A 6.909 6.909 0 0 0 71.667 67.447 A 6.066 6.066 0 0 0 72.217 67.422 A 1.557 1.557 0 0 0 72.67 67.315 A 1.289 1.289 0 0 0 73.096 67.032 A 0.945 0.945 0 0 0 73.297 66.717 Q 73.415 66.428 73.434 65.984 A 4.115 4.115 0 0 0 73.438 65.811 A 1.128 1.128 0 0 0 73.381 65.446 A 0.939 0.939 0 0 0 73.096 65.03 Q 72.754 64.737 72.656 64.444 A 12.638 12.638 0 0 1 73.089 63.833 Q 73.444 63.363 73.779 63.028 A 9.822 9.822 0 0 0 74.386 62.365 A 8.029 8.029 0 0 0 74.707 61.953 A 3.565 3.565 0 0 0 75.15 61.128 A 4.422 4.422 0 0 0 75.293 60.684 Q 75.488 59.951 75.195 58.682 A 17.255 17.255 0 0 1 77.979 55.02 A 42.212 42.212 0 0 1 81.348 51.993 A 105.845 105.845 0 0 1 84.961 49.209 A 38.101 38.101 0 0 0 88.477 46.28 Q 89.955 46.902 90.969 46.533 A 2.122 2.122 0 0 0 91.455 46.28 A 13.047 13.047 0 0 0 93.205 44.829 A 11.875 11.875 0 0 0 93.457 44.571 A 12.011 12.011 0 0 1 94.336 43.728 A 9.011 9.011 0 0 1 95.215 43.057 A 1.222 1.222 0 0 1 95.908 42.85 Q 96.611 42.85 97.559 43.545 L 97.754 43.741 A 10.541 10.541 0 0 1 99.222 42.502 Q 101.136 41.185 103.076 41.397 Q 105.762 41.69 107.666 43.155 A 8.283 8.283 0 0 1 109.028 44.456 A 6.045 6.045 0 0 1 110.156 46.524 A 3.807 3.807 0 0 1 110.259 46.935 Q 110.511 48.266 109.49 48.904 A 2.721 2.721 0 0 1 109.082 49.112 A 3.673 3.673 0 0 1 109.904 50.323 A 3.481 3.481 0 0 1 110.156 51.651 A 4.609 4.609 0 0 1 109.95 53.053 A 3.957 3.957 0 0 1 109.375 54.19 A 17.419 17.419 0 0 0 107.982 56.354 A 15.948 15.948 0 0 0 107.861 56.582 A 169.367 169.367 0 0 0 107.214 57.84 A 198.329 198.329 0 0 0 106.543 59.17 A 39.909 39.909 0 0 1 104.431 63.356 A 36.951 36.951 0 0 1 104.395 63.418 A 9.678 9.678 0 0 1 101.784 66.299 A 11.675 11.675 0 0 1 101.074 66.787 A 5.588 5.588 0 0 0 100.632 66.683 Q 99.929 66.548 99.439 66.674 A 1.302 1.302 0 0 0 98.682 67.178 Q 98.047 68.057 97.754 69.082 A 8.708 8.708 0 0 1 97.541 69.735 Q 97.427 70.04 97.301 70.292 A 3.742 3.742 0 0 1 97.07 70.694 A 0.468 0.468 0 0 1 96.681 70.913 Q 96.259 70.931 95.521 70.387 A 6.815 6.815 0 0 1 95.41 70.303 L 95.215 70.108 L 95.02 70.303 Q 94.238 71.084 93.799 72.061 A 3.752 3.752 0 0 1 93.33 72.846 A 2.929 2.929 0 0 1 92.578 73.526 Q 91.699 73.233 90.723 73.037 A 96.273 96.273 0 0 1 89.771 72.842 A 82.76 82.76 0 0 1 88.867 72.647 A 8.711 8.711 0 0 1 88.783 73.898 Q 88.611 75.082 88.086 75.869 A 6.221 6.221 0 0 1 86.084 77.774 Q 84.863 78.506 83.301 78.946 A 26.502 26.502 0 0 0 80.225 80.02 Q 78.711 80.655 77.393 81.582 A 6.066 6.066 0 0 0 75.775 83.294 A 7.677 7.677 0 0 0 75.293 84.17 A 3.685 3.685 0 0 0 77.734 85.391 A 14.959 14.959 0 0 0 79.224 85.464 A 16.474 16.474 0 0 0 80.762 85.391 A 32.948 32.948 0 0 1 83.838 85.244 Q 85.352 85.244 86.523 86.026 L 86.621 86.123 L 86.719 86.026 A 19.728 19.728 0 0 0 91.26 84.903 A 84.627 84.627 0 0 0 95.557 83.145 A 84.627 84.627 0 0 1 99.854 81.387 A 23.966 23.966 0 0 1 104.395 80.166 A 2.085 2.085 0 0 0 104.818 80.664 A 1.662 1.662 0 0 0 105.713 81.045 A 4.687 4.687 0 0 0 106.261 81.078 A 4.368 4.368 0 0 0 107.324 80.948 L 107.422 80.752 A 21.616 21.616 0 0 1 107.614 80.115 Q 107.71 79.814 107.806 79.549 A 13.015 13.015 0 0 1 107.812 79.532 Q 108.008 78.994 108.398 78.311 A 5.484 5.484 0 0 1 109.26 77.257 A 4.651 4.651 0 0 1 110.059 76.651 A 7.967 7.967 0 0 1 112.158 75.772 A 13.133 13.133 0 0 1 113.925 75.442 A 15.153 15.153 0 0 1 114.551 75.381 Q 115.82 75.284 117.09 75.088 L 117.285 75.088 L 117.383 74.795 A 5.317 5.317 0 0 1 117.622 74.194 Q 117.94 73.524 118.376 73.207 A 1.626 1.626 0 0 1 118.408 73.184 Q 119.043 72.744 119.775 72.549 A 10.687 10.687 0 0 1 120.923 72.312 A 12.398 12.398 0 0 1 121.338 72.256 A 3.757 3.757 0 0 0 122.642 71.846 A 4.519 4.519 0 0 0 122.949 71.67 Q 123.608 71.89 124.185 71.89 A 2.568 2.568 0 0 0 125.879 71.28 A 33.543 33.543 0 0 0 128.125 69.229 L 128.906 70.205 L 129.199 69.815 L 131.396 67.764 A 23.994 23.994 0 0 1 132.271 66.985 A 19.377 19.377 0 0 1 132.813 66.543 A 11.8 11.8 0 0 1 133.557 66.006 Q 133.959 65.738 134.422 65.47 A 10.933 10.933 0 0 1 134.424 65.469 Q 135.134 65.058 136.274 64.332 A 124.797 124.797 0 0 0 137.012 63.858 Q 138.379 62.979 139.697 62.1 Q 141.016 61.221 142.285 60.147 A 0.848 0.848 0 0 1 142.55 60.309 Q 142.727 60.473 142.764 60.736 A 1.038 1.038 0 0 1 142.773 60.879 L 142.773 61.905 A 1.003 1.003 0 0 0 142.717 62.046 Q 142.661 62.222 142.627 62.491 Q 142.582 62.848 142.742 63.042 A 0.485 0.485 0 0 0 142.773 63.076 A 74.486 74.486 0 0 0 142.361 63.492 Q 141.785 64.077 141.455 64.444 A 18.919 18.919 0 0 0 140.992 64.978 A 14.75 14.75 0 0 0 140.674 65.371 A 14.987 14.987 0 0 1 140.308 65.823 A 19.207 19.207 0 0 1 139.893 66.299 L 138.574 67.764 Q 137.793 68.545 137.109 69.424 Q 136.426 70.303 135.547 70.987 Q 134.821 70.805 134.301 70.961 A 1.414 1.414 0 0 0 133.74 71.28 Q 133.105 71.866 132.568 72.598 A 70.015 70.015 0 0 0 132.056 73.306 A 54.884 54.884 0 0 0 131.592 73.965 A 1.52 1.52 0 0 1 131.326 74.264 Q 130.964 74.569 130.48 74.504 A 1.375 1.375 0 0 1 130.469 74.502 A 43.441 43.441 0 0 1 125.928 76.641 A 40.102 40.102 0 0 1 125.781 76.7 A 16.397 16.397 0 0 0 122.243 78.653 A 19.266 19.266 0 0 0 121.289 79.385 Z M 324.805 53.701 L 327.051 51.455 Q 327.539 52.237 328.223 51.797 A 11.939 11.939 0 0 0 329.205 51.09 A 13.942 13.942 0 0 0 329.59 50.772 A 3.904 3.904 0 0 1 330.054 50.427 Q 330.314 50.264 330.566 50.175 A 1.901 1.901 0 0 1 330.908 50.088 A 0.52 0.52 0 0 1 330.987 50.082 Q 331.542 50.082 332.059 51.287 A 7.329 7.329 0 0 1 332.129 51.455 A 9.834 9.834 0 0 1 332.685 53.52 Q 332.78 54.153 332.78 54.776 A 8.038 8.038 0 0 1 332.617 56.387 A 22.486 22.486 0 0 1 331.104 61.075 A 532.354 532.354 0 0 1 329.004 65.713 Q 327.93 68.057 327.734 70.498 L 327.734 71.719 A 9.034 9.034 0 0 1 327.679 72.699 A 10.273 10.273 0 0 1 327.637 73.037 Q 327.441 75.088 327.1 77.481 Q 326.758 79.873 327.344 81.826 A 6.083 6.083 0 0 0 328.68 84.243 A 7.832 7.832 0 0 0 329.395 84.951 A 29.528 29.528 0 0 1 331.112 86.575 A 23.84 23.84 0 0 1 332.129 87.686 A 3.219 3.219 0 0 1 332.585 87.653 A 3.304 3.304 0 0 1 333.496 87.784 A 69.009 69.009 0 0 1 334.655 88.125 A 62.224 62.224 0 0 1 334.814 88.174 Q 335.322 88.33 335.799 88.33 A 2.845 2.845 0 0 0 336.035 88.321 Q 336.516 88.281 336.998 87.878 A 3.199 3.199 0 0 0 337.207 87.686 A 1.699 1.699 0 0 1 337.568 87.575 Q 338.06 87.484 338.525 87.735 A 7.329 7.329 0 0 1 339.709 88.534 A 8.063 8.063 0 0 1 339.746 88.565 A 7.387 7.387 0 0 0 340.888 89.352 A 6.859 6.859 0 0 0 340.967 89.395 A 1.509 1.509 0 0 0 341.693 89.579 Q 341.894 89.579 342.106 89.529 A 2.291 2.291 0 0 0 342.383 89.444 Q 342.48 90.616 341.992 91.201 A 2.757 2.757 0 0 1 341.137 91.881 A 3.567 3.567 0 0 1 340.674 92.08 A 9.267 9.267 0 0 1 339.463 92.414 A 11.049 11.049 0 0 1 338.867 92.52 Q 337.942 92.659 337.28 93.016 A 3.517 3.517 0 0 0 337.207 93.057 A 56.687 56.687 0 0 1 331.903 92.26 A 52.183 52.183 0 0 1 331.738 92.227 A 20.001 20.001 0 0 1 327.711 90.967 A 18.248 18.248 0 0 1 326.855 90.567 Q 324.609 89.444 322.803 87.588 A 14.314 14.314 0 0 1 320.893 85.116 A 18.949 18.949 0 0 1 319.727 82.901 Q 320.987 80.865 320.611 78.396 A 8.072 8.072 0 0 0 320.605 78.36 A 459.113 459.113 0 0 1 319.959 74.114 A 417.948 417.948 0 0 1 319.873 73.526 A 14.148 14.148 0 0 1 319.733 72.03 Q 319.686 70.814 319.874 69.715 A 9.648 9.648 0 0 1 319.971 69.229 Q 320.41 67.276 323.34 66.104 A 5.512 5.512 0 0 1 323.253 65.175 Q 323.248 64.701 323.317 64.195 A 8.019 8.019 0 0 1 323.389 63.76 Q 323.61 62.61 322.829 61.78 A 2.916 2.916 0 0 0 322.656 61.612 Q 319.238 62.784 316.699 64.932 Q 314.16 67.08 311.865 69.619 A 726.966 726.966 0 0 0 307.275 74.746 A 30.079 30.079 0 0 1 302.246 79.287 Q 301.203 79.368 300.062 79.217 A 12.753 12.753 0 0 1 299.561 79.141 Q 298.145 78.897 297.168 79.971 A 2.562 2.562 0 0 0 297.371 80.678 A 2.217 2.217 0 0 0 297.656 81.143 A 6.015 6.015 0 0 1 298.068 81.723 A 4.909 4.909 0 0 1 298.291 82.119 Q 298.535 82.608 298.535 83.145 Q 298.535 83.682 297.852 84.366 A 9.915 9.915 0 0 1 296.1 85.77 A 9.079 9.079 0 0 1 295.752 85.977 A 24.067 24.067 0 0 0 293.604 87.344 A 7.132 7.132 0 0 0 291.981 88.932 A 6.766 6.766 0 0 0 291.895 89.053 Q 291.327 89.863 291.231 91.145 A 7.26 7.26 0 0 0 291.211 91.69 Q 290.82 91.494 290.473 91.494 A 1.164 1.164 0 0 0 290.137 91.543 A 2.294 2.294 0 0 0 289.503 91.85 A 2.909 2.909 0 0 0 289.209 92.08 A 7.092 7.092 0 0 0 288.431 92.895 A 7.836 7.836 0 0 0 288.379 92.959 A 5.453 5.453 0 0 1 288.037 93.349 Q 287.859 93.533 287.68 93.677 A 3.171 3.171 0 0 1 287.598 93.741 A 1.188 1.188 0 0 0 287.544 93.907 Q 287.454 94.289 287.695 94.571 A 11.263 11.263 0 0 0 288.013 94.925 A 15.305 15.305 0 0 0 288.379 95.303 A 3.991 3.991 0 0 1 288.158 95.808 Q 287.822 96.441 287.354 96.621 A 2.031 2.031 0 0 1 286.618 96.757 Q 286.388 96.757 286.148 96.708 A 2.752 2.752 0 0 1 285.986 96.67 Q 285.254 96.475 284.521 96.035 A 24.773 24.773 0 0 0 283.909 95.679 Q 283.627 95.521 283.371 95.388 A 13.948 13.948 0 0 0 283.203 95.303 Q 282.931 94.123 282.827 92.606 A 24.775 24.775 0 0 1 282.812 92.373 A 18.752 18.752 0 0 1 282.78 91.272 A 18.018 18.018 0 0 1 282.91 89.102 Q 283.105 87.491 283.691 86.026 A 6.042 6.042 0 0 1 285.449 83.584 A 19.415 19.415 0 0 1 285.585 83.483 Q 285.858 83.282 285.938 83.243 L 286.035 83.194 L 286.133 83.145 Q 286.212 83.105 286.42 82.905 A 7.969 7.969 0 0 0 286.523 82.803 A 5.173 5.173 0 0 0 287.302 81.662 A 4.511 4.511 0 0 0 287.598 80.899 A 21.895 21.895 0 0 0 288.086 78.799 A 15.267 15.267 0 0 1 288.623 76.7 A 4.075 4.075 0 0 1 289.62 75.105 A 4.931 4.931 0 0 1 289.844 74.893 A 6.319 6.319 0 0 1 289.695 74.09 Q 289.589 73.178 289.802 72.397 A 3.785 3.785 0 0 1 289.893 72.11 Q 290.332 70.889 291.064 69.766 L 292.529 67.52 Q 293.262 66.397 293.457 65.03 A 3.32 3.32 0 0 0 293.518 64.558 Q 293.531 64.324 293.506 64.102 A 8.082 8.082 0 0 1 293.46 63.43 A 9.384 9.384 0 0 1 293.457 63.174 A 7.024 7.024 0 0 1 293.418 62.77 Q 293.349 61.738 293.644 61.069 A 2.058 2.058 0 0 1 293.799 60.782 Q 294.336 59.951 295.166 59.414 Q 295.996 58.877 296.924 58.291 A 4.346 4.346 0 0 0 297.89 57.447 Q 298.236 57.046 298.535 56.534 Q 300.529 57.496 301.385 58.918 A 4.41 4.41 0 0 1 301.904 60.196 A 14.968 14.968 0 0 1 302.252 62.529 Q 302.344 63.811 302.252 65.228 A 23.095 23.095 0 0 1 302.246 65.323 Q 300.586 66.397 299.707 68.301 Q 298.828 70.205 298.535 71.963 Q 298.73 72.549 299.072 72.598 Q 299.414 72.647 299.854 72.5 A 6.362 6.362 0 0 0 300.635 72.183 A 5.849 5.849 0 0 0 300.684 72.159 A 1.881 1.881 0 0 1 301.123 72.001 A 1.595 1.595 0 0 1 301.465 71.963 A 78.849 78.849 0 0 0 307.471 67.334 A 88.068 88.068 0 0 0 308.447 66.494 A 22.592 22.592 0 0 0 313.744 59.804 A 21.814 21.814 0 0 0 313.867 59.561 A 36.967 36.967 0 0 0 319.238 56.387 Q 321.777 54.58 324.805 53.701 Z M 130.957 89.444 L 130.957 89.346 L 128.906 87.588 L 128.613 87.881 A 4.126 4.126 0 0 0 127.841 88.937 A 3.931 3.931 0 0 0 127.832 88.955 Q 127.539 89.541 127.148 90.03 A 37.244 37.244 0 0 1 125.488 92.325 Q 124.609 93.448 123.486 94.278 Q 122.363 95.108 121.094 95.547 A 5.62 5.62 0 0 1 119.242 95.851 A 6.677 6.677 0 0 1 118.359 95.791 A 7.518 7.518 0 0 1 119.678 91.494 Q 120.996 89.541 122.217 87.637 Q 123.438 85.733 123.779 83.731 A 3.569 3.569 0 0 0 123.83 83.129 Q 123.83 81.394 122.168 79.483 Q 122.074 78.17 121.035 76.902 A 7.228 7.228 0 0 0 120.947 76.797 A 49.607 49.607 0 0 1 118.863 74.181 A 44.474 44.474 0 0 1 118.848 74.16 A 6.981 6.981 0 0 1 118.201 73.118 Q 117.886 72.483 117.768 71.86 A 4.074 4.074 0 0 1 117.725 71.573 A 1.62 1.62 0 0 1 117.714 71.387 Q 117.714 70.306 119.164 69.226 A 8.22 8.22 0 0 1 119.434 69.034 Q 118.555 68.838 118.262 68.35 A 2.199 2.199 0 0 1 118.343 67.769 A 2.964 2.964 0 0 1 118.506 67.325 A 25.863 25.863 0 0 0 118.792 66.672 A 21.748 21.748 0 0 0 118.945 66.299 A 3.132 3.132 0 0 0 119.716 66.199 A 3.972 3.972 0 0 0 120.166 66.055 A 14.305 14.305 0 0 1 120.776 65.835 A 10.597 10.597 0 0 1 121.338 65.664 Q 121.606 65.591 121.851 65.591 A 1.457 1.457 0 0 1 122.314 65.664 A 0.886 0.886 0 0 1 122.611 65.84 Q 122.837 66.035 123.049 66.412 A 4.15 4.15 0 0 1 123.145 66.592 A 7.173 7.173 0 0 1 123.556 67.609 A 8.157 8.157 0 0 1 123.633 67.862 Q 123.828 68.545 124.121 69.229 A 18.799 18.799 0 0 0 126.074 72.891 Q 127.246 74.6 128.711 76.065 L 129.004 76.358 A 0.123 0.123 0 0 1 129.02 76.306 Q 129.079 76.19 129.35 75.915 A 8.168 8.168 0 0 1 129.395 75.869 Q 129.785 75.479 130.273 75.039 A 26.289 26.289 0 0 0 130.737 74.612 A 20.28 20.28 0 0 0 131.152 74.209 L 131.738 73.623 A 762.724 762.724 0 0 1 133.441 72.067 A 665.27 665.27 0 0 1 133.984 71.573 A 18.895 18.895 0 0 0 135.402 70.144 A 16.394 16.394 0 0 0 135.889 69.571 A 7.414 7.414 0 0 0 137.158 67.228 A 7.279 7.279 0 0 0 137.158 67.227 A 8.163 8.163 0 0 0 137.488 65.799 Q 137.598 65.03 137.598 64.151 Q 140.625 62.1 143.555 59.61 A 167.906 167.906 0 0 1 149.512 54.776 A 52.964 52.964 0 0 1 155.811 50.576 Q 159.082 48.721 162.891 48.037 Q 163.77 49.6 164.941 50.479 A 140.722 140.722 0 0 1 167.236 52.237 A 10.382 10.382 0 0 1 168.811 53.775 A 12.161 12.161 0 0 1 169.287 54.385 A 5.992 5.992 0 0 1 169.952 55.578 Q 170.209 56.181 170.395 56.911 A 13.055 13.055 0 0 1 170.605 57.901 Q 171.387 62.1 170.654 65.811 A 56.643 56.643 0 0 1 169.347 71.052 A 67.071 67.071 0 0 1 168.555 73.526 A 74.058 74.058 0 0 0 167.139 78.311 Q 166.504 80.752 166.504 83.291 L 167.188 83.487 A 4.842 4.842 0 0 1 167.877 82.735 Q 168.39 82.288 168.972 82.088 A 2.956 2.956 0 0 1 169.189 82.022 Q 170.313 81.729 171.484 81.631 A 17.718 17.718 0 0 0 173.779 81.289 A 2.761 2.761 0 0 0 175.12 80.556 A 4.072 4.072 0 0 0 175.684 79.873 Q 176.352 80.13 176.979 80.13 A 2.985 2.985 0 0 0 178.076 79.922 A 9.475 9.475 0 0 0 179.733 79.071 A 11.06 11.06 0 0 0 180.273 78.701 Q 181.348 77.92 182.422 77.041 Q 183.496 76.162 184.668 75.869 L 184.57 75.088 A 24.578 24.578 0 0 1 185.721 74.363 Q 186.765 73.748 187.598 73.428 Q 188.867 72.94 189.941 72.451 A 8.934 8.934 0 0 0 191.217 71.734 A 11.448 11.448 0 0 0 192.09 71.084 A 7.332 7.332 0 0 0 192.79 70.421 Q 193.479 69.685 194.27 68.54 A 27.947 27.947 0 0 0 194.531 68.155 Q 195.02 67.959 195.654 68.008 A 1.384 1.384 0 0 1 196.058 68.097 A 1.046 1.046 0 0 1 196.582 68.545 Q 196.094 71.573 195.41 73.184 A 9.628 9.628 0 0 1 194.694 74.566 A 7.201 7.201 0 0 1 193.701 75.821 Q 192.676 76.846 191.113 77.774 A 20.739 20.739 0 0 0 189.915 78.548 Q 189.347 78.94 188.719 79.418 A 47.675 47.675 0 0 0 187.402 80.459 Q 186.621 81.045 185.938 81.534 A 10.105 10.105 0 0 0 185.083 82.22 A 12.49 12.49 0 0 0 184.57 82.705 Q 182.617 83.291 179.785 84.61 Q 176.953 85.928 173.975 87.246 A 97.121 97.121 0 0 1 170.366 88.761 A 79.731 79.731 0 0 1 168.311 89.541 A 17.964 17.964 0 0 1 166.981 89.97 Q 165.193 90.467 163.965 90.323 A 2.073 2.073 0 0 1 163.255 90.909 Q 162.717 91.192 161.914 91.299 Q 160.449 91.494 159.668 91.494 A 17.645 17.645 0 0 0 157.08 91.69 Q 155.762 91.885 154.785 92.862 L 154.541 93.106 A 0.222 0.222 0 0 0 154.533 93.115 Q 154.497 93.155 154.541 93.155 A 0.071 0.071 0 0 1 154.55 93.155 Q 154.582 93.159 154.548 93.196 A 0.232 0.232 0 0 1 154.541 93.203 Q 154.492 93.252 154.297 93.545 Q 153.612 94.355 152.908 94.688 A 2.36 2.36 0 0 1 152.1 94.912 A 4.693 4.693 0 0 1 151.693 94.93 A 4.69 4.69 0 0 1 149.902 94.571 Q 148.828 94.131 147.705 93.448 A 10.496 10.496 0 0 0 146.301 92.727 A 8.877 8.877 0 0 0 145.459 92.422 A 4.534 4.534 0 0 0 144.132 92.223 A 4.736 4.736 0 0 0 143.164 92.325 A 3.108 3.108 0 0 0 142.175 92.73 Q 141.784 92.97 141.392 93.336 A 7.453 7.453 0 0 0 140.82 93.936 A 4.411 4.411 0 0 0 140.346 93.021 Q 139.702 92.091 138.672 91.885 A 18.144 18.144 0 0 0 135.693 91.543 A 20.728 20.728 0 0 1 133.505 91.36 A 18.235 18.235 0 0 1 132.813 91.25 A 2.166 2.166 0 0 1 131.234 90.104 A 3.536 3.536 0 0 1 130.957 89.444 Z M 216.113 93.35 L 215.43 93.448 A 5.132 5.132 0 0 1 215.274 94.049 Q 215.069 94.672 214.742 94.959 A 0.976 0.976 0 0 1 214.404 95.157 A 4.644 4.644 0 0 1 213.519 95.354 A 6.157 6.157 0 0 1 212.744 95.401 A 8.303 8.303 0 0 0 210.938 95.596 Q 210.059 95.791 209.473 97.256 A 11.851 11.851 0 0 1 208.483 97.504 Q 207.448 97.714 206.644 97.647 A 3.622 3.622 0 0 1 206.641 97.647 Q 205.853 97.581 204.757 97.56 A 58.43 58.43 0 0 0 203.613 97.549 A 9.127 9.127 0 0 1 203.214 97.54 Q 202.745 97.519 202.12 97.454 A 27.59 27.59 0 0 1 202.1 97.451 Q 201.172 97.354 200.586 97.549 Q 200.303 97.62 199.995 97.87 A 3.094 3.094 0 0 0 199.756 98.086 A 4.993 4.993 0 0 1 199.077 98.658 A 4.41 4.41 0 0 1 198.828 98.819 Q 198.41 99.07 197.991 99.07 A 1.401 1.401 0 0 1 197.852 99.063 A 0.742 0.742 0 0 1 197.466 98.898 Q 197.202 98.692 196.973 98.233 Q 196.387 98.379 195.85 98.379 A 3.55 3.55 0 0 1 194.824 98.233 A 5.518 5.518 0 0 1 193.302 97.499 A 6.471 6.471 0 0 1 192.969 97.256 Q 192.09 96.573 191.357 95.645 A 47.375 47.375 0 0 0 190.461 94.542 A 38.953 38.953 0 0 0 189.941 93.936 Q 189.453 93.35 188.867 92.862 A 16.728 16.728 0 0 1 188.075 92.16 A 14.406 14.406 0 0 1 187.793 91.885 A 5.945 5.945 0 0 1 186.551 90.038 A 7.509 7.509 0 0 1 186.23 89.151 A 15.026 15.026 0 0 1 185.645 85.733 A 21.122 21.122 0 0 1 185.612 84.561 A 21.208 21.208 0 0 1 185.742 82.217 A 22.625 22.625 0 0 1 185.977 80.606 Q 186.127 79.797 186.328 79.092 A 4.852 4.852 0 0 0 187.374 77.57 A 4.635 4.635 0 0 0 187.549 77.09 A 26.301 26.301 0 0 0 188.135 74.795 A 26.301 26.301 0 0 1 188.721 72.5 Q 189.063 71.377 189.941 70.498 A 6.421 6.421 0 0 1 190.14 68.881 A 5.684 5.684 0 0 1 190.381 68.155 Q 190.82 67.08 191.553 66.104 Q 192.285 65.127 193.213 64.297 A 45.37 45.37 0 0 0 194.315 63.279 A 37.904 37.904 0 0 0 194.922 62.686 A 25.043 25.043 0 0 0 196.484 62.637 Q 197.266 62.588 197.949 62.735 A 2.574 2.574 0 0 1 198.814 63.086 A 2.419 2.419 0 0 1 199.121 63.321 Q 199.474 63.638 199.724 64.235 A 5.035 5.035 0 0 1 199.902 64.737 A 9.264 9.264 0 0 1 200.089 65.628 Q 200.406 67.655 199.561 68.985 Q 198.535 70.596 197.266 72.061 Q 195.996 73.526 195.215 75.088 A 3.005 3.005 0 0 0 194.908 76.284 Q 194.842 77.501 195.605 79.092 Q 195.035 79.092 194.671 79.257 A 1.032 1.032 0 0 0 194.189 79.678 A 4.112 4.112 0 0 0 193.775 80.683 A 4.844 4.844 0 0 0 193.701 80.996 A 7.139 7.139 0 0 1 193.262 82.412 A 1.598 1.598 0 0 1 192.614 83.148 A 2.466 2.466 0 0 1 192.09 83.389 A 1.714 1.714 0 0 1 192.442 83.924 Q 192.659 84.422 192.712 85.19 A 7.022 7.022 0 0 1 192.725 85.44 A 19.339 19.339 0 0 0 192.908 87.555 A 16.953 16.953 0 0 0 193.018 88.223 A 6.17 6.17 0 0 0 193.256 89.136 Q 193.427 89.627 193.674 90.014 A 3.328 3.328 0 0 0 193.896 90.323 A 1.1 1.1 0 0 0 194.565 90.71 Q 195.198 90.832 196.22 90.447 A 7.236 7.236 0 0 0 196.289 90.42 A 3.798 3.798 0 0 0 198.822 91.329 Q 199.079 91.329 199.348 91.301 A 5.496 5.496 0 0 0 199.365 91.299 A 22.463 22.463 0 0 1 200.97 91.182 Q 201.323 91.169 201.666 91.169 A 17.137 17.137 0 0 1 202.734 91.201 Q 204.102 90.323 205.078 90.274 A 6.464 6.464 0 0 1 205.401 90.266 A 5.701 5.701 0 0 1 206.934 90.469 Q 207.813 90.713 208.789 90.909 Q 209.766 91.104 211.133 90.616 A 5.078 5.078 0 0 1 211.356 89.892 Q 211.76 88.884 212.5 88.662 A 8.203 8.203 0 0 1 214.453 88.321 A 6.72 6.72 0 0 0 215.672 88.151 A 5.771 5.771 0 0 0 216.26 87.979 A 1.215 1.215 0 0 0 216.826 87.541 Q 217.129 87.138 217.304 86.408 A 6.464 6.464 0 0 0 217.383 86.026 A 3.412 3.412 0 0 1 218.059 85.374 A 2.607 2.607 0 0 1 219.238 84.903 Q 220.313 84.756 221.436 84.561 Q 222.559 84.366 223.486 83.731 Q 224.373 83.124 224.769 81.404 A 8.905 8.905 0 0 0 224.805 81.241 Q 226.465 79.971 227.197 79.336 A 66.608 66.608 0 0 1 227.548 79.034 Q 228.052 78.604 228.418 78.311 A 9.404 9.404 0 0 1 228.825 78.004 Q 229.012 77.871 229.228 77.728 A 20.02 20.02 0 0 1 229.687 77.432 A 263.02 263.02 0 0 0 230.145 77.145 Q 230.85 76.703 232.037 75.953 A 2078.443 2078.443 0 0 0 232.324 75.772 A 17.775 17.775 0 0 1 232.338 76.152 Q 232.382 78 231.982 78.799 Q 231.544 79.676 230.959 80.213 A 3.867 3.867 0 0 1 230.957 80.215 Q 230.371 80.752 229.932 81.387 Q 229.563 81.919 229.504 83.102 A 9.586 9.586 0 0 0 229.492 83.584 A 74.562 74.562 0 0 1 228.424 84.723 Q 226.904 86.306 225.879 87.149 Q 224.512 88.272 223.242 89.004 A 258.843 258.843 0 0 1 221.899 89.773 A 349.907 349.907 0 0 1 220.41 90.616 A 31.263 31.263 0 0 0 219.556 91.116 Q 218.599 91.695 217.331 92.534 A 123.172 123.172 0 0 0 216.113 93.35 Z M 242.09 105.85 L 240.82 108.291 A 15.701 15.701 0 0 1 239.385 109.051 A 18.507 18.507 0 0 1 238.672 109.366 Q 237.5 109.854 236.328 110.44 Q 235.156 111.026 234.18 111.807 Q 233.203 112.588 232.715 113.76 Q 231.681 113.196 230.782 113.673 A 2.151 2.151 0 0 0 230.713 113.711 A 12.874 12.874 0 0 0 229.071 114.845 A 14.284 14.284 0 0 0 228.906 114.981 A 10.722 10.722 0 0 1 227.56 115.942 A 9.453 9.453 0 0 1 227.1 116.201 A 1.853 1.853 0 0 1 226.226 116.423 Q 225.684 116.423 225.098 116.104 A 39.266 39.266 0 0 0 221.533 118.643 Q 219.824 120.01 218.066 121.328 A 39.764 39.764 0 0 1 214.404 123.77 Q 212.5 124.893 210.352 125.479 A 7.996 7.996 0 0 1 207.52 128.262 A 125.701 125.701 0 0 1 203.955 130.264 Q 202.148 131.241 200.684 132.608 A 5.666 5.666 0 0 0 199.285 134.705 A 8.161 8.161 0 0 0 198.828 136.416 A 11.013 11.013 0 0 0 196.277 138.65 A 9.453 9.453 0 0 0 194.678 141.446 A 20.582 20.582 0 0 0 193.464 147.766 A 23.107 23.107 0 0 0 193.457 147.989 Q 193.359 151.455 193.75 155.02 A 69.776 69.776 0 0 1 194.043 158.426 A 51.534 51.534 0 0 1 194.141 161.514 A 10.765 10.765 0 0 0 195.088 162.485 Q 195.604 162.947 196.12 163.264 A 5.372 5.372 0 0 0 196.68 163.565 A 6.224 6.224 0 0 0 199.316 164.151 A 11.742 11.742 0 0 0 201.879 163.86 A 13.094 13.094 0 0 0 202.1 163.809 Q 203.516 163.467 205.176 163.174 A 4.123 4.123 0 0 1 205.464 162.395 Q 205.871 161.579 206.592 161.27 Q 207.617 160.83 208.74 160.635 A 12.836 12.836 0 0 0 210.005 160.352 A 10.367 10.367 0 0 0 210.791 160.098 Q 211.719 159.756 211.816 158.487 L 212.695 159.268 A 5.675 5.675 0 0 1 212.899 158.048 A 4.112 4.112 0 0 1 213.574 156.68 A 11.18 11.18 0 0 1 215.133 155.026 A 12.635 12.635 0 0 1 215.43 154.776 Q 216.504 153.897 217.725 153.116 A 10.684 10.684 0 0 0 219.242 151.949 A 9.276 9.276 0 0 0 219.824 151.358 Q 219.71 150.273 219.963 149.389 A 3.9 3.9 0 0 1 220.508 148.233 Q 221.387 146.963 222.461 145.889 A 14.624 14.624 0 0 0 224.365 143.545 A 4.045 4.045 0 0 0 224.95 142.045 Q 225.08 141.34 225.016 140.507 A 7.865 7.865 0 0 0 225 140.323 A 2.703 2.703 0 0 0 225.754 139.878 A 2.284 2.284 0 0 0 226.367 139.053 A 41.999 41.999 0 0 1 226.947 137.802 A 36.309 36.309 0 0 1 227.148 137.393 A 3.257 3.257 0 0 1 227.56 136.756 A 2.521 2.521 0 0 1 228.174 136.221 A 1.033 1.033 0 0 1 228.537 136.087 Q 229.104 135.985 230.023 136.353 A 6.835 6.835 0 0 1 230.176 136.416 A 7.757 7.757 0 0 1 229.752 136.061 Q 228.851 135.241 229.053 134.756 A 1.943 1.943 0 0 1 229.451 134.159 Q 229.64 133.962 229.895 133.787 A 3.538 3.538 0 0 1 229.98 133.731 Q 230.664 133.291 231.25 132.705 Q 231.75 132.205 231.397 131.279 A 3.654 3.654 0 0 0 231.25 130.948 A 7.109 7.109 0 0 0 232.609 130.212 Q 233.457 129.616 233.936 128.825 A 4.107 4.107 0 0 0 234.277 128.116 A 20.995 20.995 0 0 0 235.2 124.746 A 23.598 23.598 0 0 0 235.303 124.16 Q 235.645 122.061 236.328 120.059 A 4.999 4.999 0 0 1 237.926 117.8 A 7.487 7.487 0 0 1 239.355 116.885 Q 239.16 115.127 239.99 113.809 A 56.816 56.816 0 0 1 241.235 111.914 A 50.254 50.254 0 0 1 241.65 111.319 A 7.991 7.991 0 0 0 242.561 109.661 A 7.081 7.081 0 0 0 242.822 108.877 A 2.456 2.456 0 0 0 242.905 108.236 Q 242.905 107.459 242.46 106.528 A 7.522 7.522 0 0 0 242.09 105.85 Z M 37.988 57.315 L 38.281 56.631 A 7.117 7.117 0 0 1 37.15 55.587 A 5.147 5.147 0 0 1 36.182 53.946 A 25.459 25.459 0 0 1 35.303 50.869 A 21.128 21.128 0 0 0 34.441 47.935 A 19.623 19.623 0 0 0 34.424 47.891 A 4.39 4.39 0 0 0 33.319 46.261 A 6.204 6.204 0 0 0 32.324 45.498 L 32.129 45.401 Q 32.031 45.401 31.055 45.596 Q 30.091 45.789 29.888 45.886 A 0.389 0.389 0 0 0 29.883 45.889 A 7.194 7.194 0 0 1 30.257 46.238 Q 30.608 46.594 30.775 46.887 A 1.43 1.43 0 0 1 30.859 47.061 A 1.535 1.535 0 0 1 30.964 47.478 Q 30.992 47.758 30.908 48.037 A 3.518 3.518 0 0 1 30.713 48.538 Q 30.591 48.794 30.42 49.063 Q 30.099 49.566 29.908 50.284 A 6.291 6.291 0 0 0 29.883 50.381 A 0.24 0.24 0 0 1 29.749 50.447 Q 29.575 50.477 29.269 50.326 A 2.794 2.794 0 0 1 29.102 50.235 Q 28.653 49.973 28.376 49.797 A 8.289 8.289 0 0 1 28.223 49.698 A 6.348 6.348 0 0 1 24.365 52.383 A 944.701 944.701 0 0 0 21.936 53.006 A 811.059 811.059 0 0 0 19.629 53.604 A 13.363 13.363 0 0 0 19.824 54.068 A 10.115 10.115 0 0 0 20.02 54.483 A 10.115 10.115 0 0 1 20.215 54.898 A 13.363 13.363 0 0 1 20.41 55.362 A 13.218 13.218 0 0 0 17.883 57.522 A 10.713 10.713 0 0 0 16.162 60.098 A 56.12 56.12 0 0 0 13.818 65.86 Q 12.793 68.838 11.377 71.621 A 11.933 11.933 0 0 1 8.401 75.329 A 14.942 14.942 0 0 1 7.031 76.358 A 5.949 5.949 0 0 1 7.498 77.261 A 4.867 4.867 0 0 1 7.715 77.92 A 1.395 1.395 0 0 0 8.202 78.667 Q 8.506 78.918 8.984 79.092 Q 9.277 80.166 9.229 81.289 Q 9.18 82.412 8.984 83.487 Q 8.789 84.561 8.74 85.684 Q 8.697 86.687 8.926 87.728 A 8.973 8.973 0 0 0 8.984 87.979 L 9.18 88.174 A 12.443 12.443 0 0 0 10.277 88.511 Q 12.53 89.082 13.916 88.369 A 11.448 11.448 0 0 0 16.943 86.123 Q 18.262 84.756 19.824 83.584 A 3.804 3.804 0 0 1 21.347 82.913 Q 22.556 82.659 24.189 82.992 A 11.397 11.397 0 0 1 24.219 82.998 L 24.609 82.412 A 8.643 8.643 0 0 1 24.457 82.004 Q 24.393 81.816 24.346 81.645 A 4.853 4.853 0 0 1 24.316 81.534 A 3.17 3.17 0 0 1 24.24 81.091 A 4.244 4.244 0 0 1 24.219 80.655 Q 24.316 79.58 24.805 78.946 A 10.972 10.972 0 0 1 25.212 78.449 Q 25.446 78.18 25.724 77.888 A 21.315 21.315 0 0 1 26.074 77.53 A 22.715 22.715 0 0 0 27.393 75.869 Q 28.027 74.991 28.613 74.014 Q 29.199 73.135 29.98 72.5 Q 30.762 71.866 32.031 72.354 L 33.887 65.323 A 0.801 0.801 0 0 1 34.063 64.97 Q 34.255 64.737 34.641 64.531 A 3.756 3.756 0 0 1 34.814 64.444 A 8.629 8.629 0 0 0 35.731 63.945 A 7.04 7.04 0 0 0 36.279 63.565 Q 36.914 63.076 37.061 62.295 A 0.904 0.904 0 0 0 37.076 62.128 Q 37.076 61.54 36.367 60.708 A 7.888 7.888 0 0 0 35.937 60.244 Q 36.098 59.923 36.193 59.469 A 5.075 5.075 0 0 0 36.23 59.268 A 5.552 5.552 0 0 1 36.391 58.574 A 4.631 4.631 0 0 1 36.523 58.194 A 2.844 2.844 0 0 1 36.709 57.81 Q 36.845 57.58 37.012 57.412 Q 37.278 57.146 37.868 57.283 A 2.531 2.531 0 0 1 37.988 57.315 Z M 156.934 57.412 L 156.934 57.608 L 156.836 57.608 Q 151.855 61.416 147.607 65.957 A 163.7 163.7 0 0 1 138.672 74.795 L 137.793 73.916 A 3.704 3.704 0 0 0 137.292 74.762 A 2.992 2.992 0 0 0 137.061 75.772 A 39.137 39.137 0 0 0 137.016 77.068 A 33.319 33.319 0 0 0 137.012 77.627 Q 137.012 78.506 136.816 79.287 Q 136.665 79.893 136.045 80.439 A 4.558 4.558 0 0 1 135.645 80.752 L 135.352 80.948 Q 135.687 82.121 136.274 82.539 A 1.276 1.276 0 0 0 136.475 82.657 A 3.169 3.169 0 0 0 137.831 82.956 A 3.507 3.507 0 0 0 138.037 82.95 A 24.708 24.708 0 0 0 139.624 82.806 A 23.315 23.315 0 0 0 139.648 82.803 A 2.516 2.516 0 0 1 139.867 82.785 Q 140.5 82.762 140.918 83.096 A 0.9 0.9 0 0 1 141.257 83.52 A 1.226 1.226 0 0 1 141.309 83.682 A 3.855 3.855 0 0 1 141.368 83.961 Q 141.393 84.106 141.402 84.235 A 1.957 1.957 0 0 1 141.406 84.366 L 142.432 84.366 A 6.565 6.565 0 0 0 143.247 84.313 A 7.658 7.658 0 0 0 143.555 84.268 Q 144.571 84.083 145.719 84.204 A 9.276 9.276 0 0 1 145.85 84.219 Q 146.788 84.332 147.121 85.166 A 2.477 2.477 0 0 1 147.266 85.733 A 176.886 176.886 0 0 0 151.014 84.182 A 193.206 193.206 0 0 0 151.27 84.073 A 7.355 7.355 0 0 0 154.59 81.241 L 155.273 81.924 A 0.311 0.311 0 0 0 155.328 81.92 Q 155.359 81.914 155.382 81.902 A 0.145 0.145 0 0 0 155.42 81.875 Q 155.46 81.835 155.534 81.828 A 0.343 0.343 0 0 1 155.566 81.826 A 9.801 9.801 0 0 0 158.844 78.564 A 12.276 12.276 0 0 0 159.424 77.53 A 24.598 24.598 0 0 0 161.341 72.2 A 27.671 27.671 0 0 0 161.523 71.377 Q 162.207 68.057 162.354 64.737 Q 162.5 61.416 162.5 58.877 A 9.412 9.412 0 0 0 161.542 58.554 A 10.276 10.276 0 0 0 161.475 58.535 A 4.063 4.063 0 0 1 160.449 58.096 Q 159.64 57.556 158.913 57.265 A 5.964 5.964 0 0 0 158.789 57.217 A 1.762 1.762 0 0 0 158.193 57.107 Q 157.703 57.1 157.124 57.331 A 4.414 4.414 0 0 0 156.934 57.412 Z M 78.809 71.182 L 79.199 71.67 A 0.511 0.511 0 0 1 79.43 71.614 Q 79.715 71.614 80.044 71.93 A 2.207 2.207 0 0 1 80.078 71.963 L 80.762 72.647 Q 81.836 71.084 83.643 70.01 A 50.735 50.735 0 0 1 87.354 68.008 A 43.833 43.833 0 0 0 91.016 66.006 A 6.888 6.888 0 0 0 93.652 63.174 A 8.217 8.217 0 0 0 96.378 61.863 A 7.471 7.471 0 0 0 98.34 59.659 A 35.193 35.193 0 0 0 100.977 54.19 Q 101.128 53.735 101.485 52.958 A 33.896 33.896 0 0 1 101.709 52.481 A 19.964 19.964 0 0 0 101.947 51.966 Q 102.259 51.263 102.338 50.895 A 1.709 1.709 0 0 0 102.344 50.869 A 0.859 0.859 0 0 0 102.304 50.832 Q 102.244 50.779 102.207 50.773 A 0.057 0.057 0 0 0 102.197 50.772 A 0.077 0.077 0 0 1 102.168 50.765 Q 102.127 50.748 102.065 50.688 A 1.017 1.017 0 0 1 102.051 50.674 Q 100.089 49.647 98.753 49.647 A 3.367 3.367 0 0 0 98.633 49.649 Q 97.266 49.698 96.143 50.43 A 8.936 8.936 0 0 0 94.416 51.911 A 10.308 10.308 0 0 0 94.092 52.285 Q 93.164 53.409 92.139 54.336 A 7.066 7.066 0 0 1 89.746 55.752 A 3.848 3.848 0 0 1 88.751 55.96 Q 87.771 56.038 86.56 55.694 A 9.45 9.45 0 0 1 86.426 55.655 Q 86.133 57.217 85.889 58.731 A 31.743 31.743 0 0 0 85.547 61.807 A 7.334 7.334 0 0 0 84.276 62.388 Q 83.52 62.832 82.993 63.428 A 4.623 4.623 0 0 0 82.959 63.467 Q 82.031 64.541 81.396 65.811 A 28.645 28.645 0 0 0 80.36 68.145 A 31.622 31.622 0 0 0 80.225 68.496 A 12.479 12.479 0 0 1 78.809 71.182 Z M 345.313 90.713 L 345.313 88.662 Q 345.605 87.295 346.924 85.586 Q 348.016 84.17 349.176 83.391 A 6.465 6.465 0 0 1 349.658 83.096 A 3.507 3.507 0 0 1 350.223 82.843 Q 351.235 82.5 352.113 83.013 A 2.658 2.658 0 0 1 352.246 83.096 Q 353.379 83.852 353.508 87.164 A 20.708 20.708 0 0 1 353.516 87.393 A 15.086 15.086 0 0 0 354.785 86.172 A 1.319 1.319 0 0 1 355.098 85.918 Q 355.577 85.644 356.21 85.911 A 2.207 2.207 0 0 1 356.25 85.928 Q 356.175 87.05 355.986 88.457 A 58.902 58.902 0 0 1 355.859 89.346 A 13.237 13.237 0 0 1 355.082 92.273 A 12.018 12.018 0 0 1 354.785 92.959 Q 354.004 94.619 352.734 95.791 Q 351.488 96.942 349.487 96.774 A 6.518 6.518 0 0 1 349.414 96.768 Q 348.331 96.678 347.624 96.171 A 2.699 2.699 0 0 1 347.51 96.084 A 4.838 4.838 0 0 1 346.383 94.782 A 5.578 5.578 0 0 1 346.289 94.619 A 7.456 7.456 0 0 1 345.557 92.715 A 8.83 8.83 0 0 1 345.323 91.112 A 7.941 7.941 0 0 1 345.313 90.713 Z M 203.516 32.022 L 208.398 26.358 Q 209.57 26.748 210.254 27.334 A 5.921 5.921 0 0 1 211.426 28.701 A 25.931 25.931 0 0 1 212.354 30.313 A 18.494 18.494 0 0 0 212.96 31.369 A 22.054 22.054 0 0 0 213.379 32.022 A 4.589 4.589 0 0 0 212.555 32.433 Q 212.108 32.721 211.835 33.085 A 2.113 2.113 0 0 0 211.426 34.073 A 15.894 15.894 0 0 0 211.27 36.323 A 17.47 17.47 0 0 0 211.279 36.905 Q 211.316 38.003 211.215 38.992 A 12.753 12.753 0 0 1 211.133 39.639 A 1.727 1.727 0 0 1 210.246 40.902 Q 209.815 41.158 209.18 41.299 A 10.705 10.705 0 0 0 207.66 39.295 A 12.021 12.021 0 0 0 207.471 39.102 A 117.538 117.538 0 0 1 205.469 37.051 Q 204.492 36.026 203.906 34.854 A 4.126 4.126 0 0 1 203.519 33.582 Q 203.429 32.953 203.494 32.227 A 7.528 7.528 0 0 1 203.516 32.022 Z" vector-effect="non-scaling-stroke"/></g></svg>